<svg width="128" height="128" viewBox="-5 -5 133 128" fill="none" xmlns="http://www.w3.org/2000/svg">
<path d="M7.5616 75.619L53.8216 66.039C54.2216 65.959 54.3916 66.439 54.0216 66.619L32.3616 77.069C31.0116 77.719 30.3816 79.139 30.9616 80.219L34.7816 87.369C35.3616 88.459 36.9116 88.759 38.2416 88.049L68.6916 71.709C69.7016 71.169 70.1116 69.969 69.6016 69.019L66.5816 63.389L65.3716 61.139L61.9916 54.839C61.5816 54.079 60.6616 53.659 59.7216 53.809L2.8416 63.239C0.791595 63.579 -0.538405 65.309 0.211595 66.699L4.3716 74.509C4.8716 75.459 6.1816 75.909 7.5616 75.629V75.619Z" fill="#005EE0"/>
<path d="M26.5417 9.55908L51.7417 36.6891C51.9917 36.9491 51.6117 37.2791 51.2917 37.0791L33.2917 25.6791C32.2217 24.9991 30.7017 25.0991 29.8817 25.8991L24.3617 31.3091C23.4917 32.1591 23.7117 33.4191 24.8417 34.0991L52.8617 51.0191C53.8617 51.6191 55.2217 51.3991 55.9117 50.5291L59.8917 45.4591L61.4317 43.4991L65.5917 38.1891C66.0817 37.5691 66.0217 36.6991 65.4517 36.0691L35.5117 3.17908C34.5917 2.15908 32.7617 1.93908 31.8517 2.74908L26.5517 7.37908C25.8917 7.95908 25.8917 8.84908 26.5517 9.55908H26.5417Z" fill="#005EE0"/>
<path d="M85.2915 0.659096L76.2715 23.9391C76.1715 24.1991 75.7215 24.0691 75.7415 23.7791L76.5215 8.9891C76.5615 8.1791 75.8315 7.3491 74.8815 7.1291L68.4915 5.6691C67.4915 5.4391 66.6215 5.9291 66.5615 6.7591L64.7615 30.0091C64.6915 30.9491 65.5015 31.8291 66.5715 31.9691L72.8215 32.8291L75.2415 33.1591L81.8215 34.0591C82.6015 34.1691 83.2915 33.7791 83.5215 33.1191L93.8315 3.5891C94.1015 2.8091 93.4115 1.7891 92.4315 1.5291L86.8215 0.0590957C86.1215 -0.120904 85.5015 0.119096 85.2915 0.659096Z" fill="#005EE0"/>
<path d="M122.741 33.429L99.3215 36.149C99.0615 36.179 98.9115 35.799 99.1415 35.699L111.141 30.479C111.781 30.199 111.972 29.389 111.582 28.659L109.001 23.869C108.611 23.139 107.761 22.749 107.111 22.999L88.1315 30.309C87.3315 30.619 87.0415 31.529 87.4815 32.339L90.1115 37.219L91.1615 39.169L94.1015 44.639C94.4615 45.299 95.1915 45.689 95.8815 45.579L126.052 40.879C126.822 40.759 127.131 39.809 126.681 38.969L124.152 34.279C123.842 33.709 123.271 33.359 122.741 33.419V33.429Z" fill="#005EE0"/>
<path d="M121.962 81.7589L102.972 60.3989C102.772 60.1789 103.012 59.8489 103.262 60.0089L116.012 68.4089C116.712 68.8689 117.572 68.6189 117.922 67.8489L120.212 62.9189C120.552 62.1889 120.282 61.2189 119.612 60.7589L101.042 48.0289C100.302 47.5189 99.3517 47.6889 98.9217 48.4189L96.2817 52.8689L95.1917 54.6989L92.0517 59.9889C91.6617 60.6489 91.7517 61.5089 92.2817 62.0889L117.592 90.0289C118.312 90.8189 119.462 90.5589 119.902 89.5089L122.292 83.7889C122.572 83.1089 122.442 82.2889 121.982 81.7589H121.962Z" fill="#005EE0"/>
<path d="M71.0617 114.019L82.3417 77.1389C82.4417 76.8089 82.9217 76.8689 82.9117 77.2089L82.2917 96.6989C82.2517 97.8589 83.1017 98.7089 84.1817 98.6089L91.0517 97.9489C92.0717 97.8489 92.8917 96.8689 92.9117 95.7589L93.2117 68.2289C93.2217 67.2389 92.4617 66.4289 91.5117 66.4089L85.6717 66.2889L83.2717 66.2389L76.3017 66.0889C75.4317 66.0689 74.6417 66.6189 74.3617 67.4389L58.3117 114.599C57.7617 116.209 58.7917 117.579 60.3617 117.339L68.8517 116.049C69.8517 115.899 70.7517 115.069 71.0717 114.029L71.0617 114.019Z" fill="#005EE0"/>
</svg>
