<svg width="293" height="93" viewBox="0 0 293 93" fill="none" xmlns="http://www.w3.org/2000/svg">
<g clip-path="url(#clip0_1258_6552)">
<path d="M110.3 1.42285C117.14 1.42285 119.32 4.43285 118.91 12.9029V80.4429C119.18 87.9629 116.45 91.5129 109.89 91.6529H103.19V1.42285H110.3ZM107.7 87.1429C113.03 87.1429 114.67 85.6429 114.4 80.5829V12.2229C114.4 6.48285 113.85 6.07285 107.7 6.07285V87.1429Z" fill="#252222"/>
<path d="M138.05 13.8627C138.05 9.07268 138.46 6.20268 139.42 4.43268C140.65 2.11268 143.11 0.742676 146.12 0.742676C151.73 0.742676 153.78 4.16268 153.78 13.7327V80.1827C153.78 89.4827 151.87 92.3527 145.85 92.3527C139.83 92.3527 138.06 89.3427 138.06 79.7727V13.8627H138.05ZM149.26 13.4527C149.26 6.48268 148.71 5.25268 145.98 5.25268C143.11 5.25268 142.56 6.48268 142.56 13.5927V80.0427C142.56 86.6027 143.11 88.1127 145.7 88.1127C148.57 88.1127 149.25 86.4727 149.25 80.1827V13.4527H149.26Z" fill="#252222"/>
<path d="M180.3 1.42281C186.18 1.15281 188.37 3.47281 188.37 9.49281V38.7528C188.37 43.6728 187.82 44.7728 185.09 45.4528C187.41 46.0028 188.37 48.0528 188.37 51.8828V81.2728C188.64 89.2028 186.59 91.5228 178.8 91.6628H172.92V1.42281H180.3ZM178.93 42.9828C182.48 43.1228 183.85 41.8928 183.85 38.4728V10.3128C183.99 7.03281 182.76 5.80281 179.34 5.93281H177.43V42.9828H178.93ZM177.43 87.1428C182.63 87.2828 183.86 86.1828 183.72 81.4028V52.8328C183.72 48.3228 182.76 47.6328 177.43 47.7728V87.1528V87.1428Z" fill="#252222"/>
<path d="M220.22 1.42285V5.93285H212.02V43.3929H220.22V47.9029H212.02V87.1429H220.22V91.6529H207.51V1.42285H220.22Z" fill="#252222"/>
<path d="M239.36 13.8627C239.36 9.07268 239.77 6.20268 240.73 4.43268C241.96 2.11268 244.42 0.742676 247.43 0.742676C253.04 0.742676 255.09 4.16268 255.09 13.7327V80.1827C255.09 89.4827 253.18 92.3527 247.16 92.3527C241.14 92.3527 239.37 89.3427 239.37 79.7727V13.8627H239.36ZM250.57 13.4527C250.57 6.48268 250.02 5.25268 247.29 5.25268C244.42 5.25268 243.87 6.48268 243.87 13.5927V80.0427C243.87 86.6027 244.42 88.1127 247.01 88.1127C249.88 88.1127 250.56 86.4727 250.56 80.1827V13.4527H250.57Z" fill="#252222"/>
<path d="M278.87 1.42285L287.62 67.0429V1.42285H292.13V91.6529H287.34L278.73 22.3329V91.6529H274.22V1.42285H278.87Z" fill="#252222"/>
<path d="M12.5066 1.89722L12.5066 91.6626H19.3403L19.3403 1.89722H12.5066Z" fill="#0030CC"/>
<path d="M0.820801 72.4449L0.820801 91.6504H12.5067L12.5067 72.4449H0.820801Z" fill="#0030CC"/>
<path d="M42.6357 1.88453L42.6357 91.6499H49.4695L49.4695 1.88453H42.6357Z" fill="#0030CC"/>
<path d="M30.95 51.5241L30.95 91.6499H42.6358V51.5241H30.95Z" fill="#0030CC"/>
<path d="M72.7651 1.88453V91.6499H79.5988V1.88453H72.7651Z" fill="#0030CC"/>
<path d="M61.092 27.6448L61.092 91.6631H72.7779V27.6448H61.092Z" fill="#0030CC"/>
</g>
<defs>
<clipPath id="clip0_1258_6552">
<rect width="293" height="93" fill="white"/>
</clipPath>
</defs>
</svg>
